HIERARCHY
ROOT Hips
{
 OFFSET 0.000000 0.000000 0.000000
 CHANNELS 6 Xposition Yposition Zposition Yrotation Xrotation Zrotation
 JOINT Chest
 {
  OFFSET 0.000000 9.588913 -0.003946
  CHANNELS 3 Yrotation Xrotation Zrotation
  JOINT Chest2
  {
   OFFSET 0.000000 9.541882 0.008053
   CHANNELS 3 Yrotation Xrotation Zrotation
   JOINT Chest3
   {
    OFFSET 0.000000 9.501360 0.000000
    CHANNELS 3 Yrotation Xrotation Zrotation
    JOINT Chest4
    {
     OFFSET 0.000000 9.491660 0.000000
     CHANNELS 3 Yrotation Xrotation Zrotation
     JOINT Neck
     {
      OFFSET 0.000000 14.331917 0.000000
      CHANNELS 3 Yrotation Xrotation Zrotation
      JOINT Head
      {
       OFFSET 0.000000 8.884799 0.017034
       CHANNELS 3 Yrotation Xrotation Zrotation
       End Site
       {
        OFFSET 0.000000 16.896195 0.008993
       }
      }
     }
     JOINT RightCollar
     {
      OFFSET -2.923010 9.499495 0.000000
      CHANNELS 3 Yrotation Xrotation Zrotation
      JOINT RightShoulder
      {
       OFFSET -13.795216 0.000000 0.000000
       CHANNELS 3 Yrotation Xrotation Zrotation
       JOINT RightElbow
       {
        OFFSET -30.272209 0.000000 0.000000
        CHANNELS 3 Yrotation Xrotation Zrotation
        JOINT RightWrist
        {
         OFFSET -24.478199 0.000000 0.000000
         CHANNELS 3 Yrotation Xrotation Zrotation
         End Site
         {
          OFFSET -18.090752 0.000000 0.000000
         }
        }
       }
      }
     }
     JOINT LeftCollar
     {
      OFFSET 2.923010 9.499495 0.000000
      CHANNELS 3 Yrotation Xrotation Zrotation
      JOINT LeftShoulder
      {
       OFFSET 13.795216 0.000000 0.000000
       CHANNELS 3 Yrotation Xrotation Zrotation
       JOINT LeftElbow
       {
        OFFSET 30.272209 0.000000 0.000000
        CHANNELS 3 Yrotation Xrotation Zrotation
        JOINT LeftWrist
        {
         OFFSET 24.478199 0.000000 0.000000
         CHANNELS 3 Yrotation Xrotation Zrotation
         End Site
         {
          OFFSET 18.090752 0.000000 0.000000
         }
        }
       }
      }
     }
    }
   }
  }
 }
 JOINT RightHip
 {
  OFFSET -7.826875 0.019532 0.001973
  CHANNELS 3 Yrotation Xrotation Zrotation
  JOINT RightKnee
  {
   OFFSET 0.000000 -40.546152 -0.001885
   CHANNELS 3 Yrotation Xrotation Zrotation
   JOINT RightAnkle
   {
    OFFSET 0.000000 -39.417092 -0.003189
    CHANNELS 3 Yrotation Xrotation Zrotation
    JOINT RightToe
    {
     OFFSET 0.000000 -7.579396 17.243563
     CHANNELS 3 Yrotation Xrotation Zrotation
     End Site
     {
      OFFSET 0.000000 -1.500329 6.694466
     }
    }
   }
  }
 }
 JOINT LeftHip
 {
  OFFSET 7.826875 0.019532 0.001973
  CHANNELS 3 Yrotation Xrotation Zrotation
  JOINT LeftKnee
  {
   OFFSET 0.000000 -40.546152 -0.001885
   CHANNELS 3 Yrotation Xrotation Zrotation
   JOINT LeftAnkle
   {
    OFFSET 0.000000 -39.417092 -0.003189
    CHANNELS 3 Yrotation Xrotation Zrotation
    JOINT LeftToe
    {
     OFFSET 0.000000 -7.579396 17.243563
     CHANNELS 3 Yrotation Xrotation Zrotation
     End Site
     {
      OFFSET 0.000000 -1.500329 6.694466
     }
    }
   }
  }
 }
}
MOTION
Frames: 15
Frame Time: 0.008333
246.650384 84.306896 -221.010647 161.593385 1.926574 1.157804 -1.896330 20.989106 2.939726 -1.222126 11.923374 1.803537 -1.475503 14.909629 2.225879 -1.222131 11.923440 1.803558 -0.140562 19.929396 -3.478653 0.790103 1.276119 -6.298660 7.381458 4.481253 -10.180060 -20.483280 -21.192328 89.789886 23.049928 -50.805848 30.374102 8.303552 -12.819792 1.909338 -11.255850 -0.157064 -5.371423 12.541418 -35.874153 -86.527781 -10.896609 -38.287967 -12.734680 -18.553064 -13.967456 3.637722 -21.026247 -27.359379 -7.911175 -2.505351 27.464553 -6.321099 -1.648921 -2.780730 9.983179 0.001418 0.025510 -0.357617 9.666027 -25.975306 1.989469 0.546414 39.054853 5.768916 1.483486 -14.177082 -7.550192 -0.053485 0.148058 -0.328845
246.586735 84.195436 -220.986977 161.968697 1.859059 0.983104 -1.936522 21.036848 2.826649 -1.239896 11.941703 1.748803 -1.499612 14.932453 2.156452 -1.239902 11.941752 1.748824 0.025792 19.869135 -3.479978 1.096354 1.173006 -6.352821 7.210293 4.740192 -10.227990 -20.670724 -20.622434 89.905383 23.087316 -50.757970 31.257488 8.182087 -12.800330 1.977947 -11.249981 -0.109804 -5.362358 12.604610 -36.148320 -86.399860 -10.794446 -38.376421 -12.595240 -18.583568 -14.060818 3.587446 -21.156609 -27.357497 -7.830613 -2.575941 27.782965 -6.453396 -1.828944 -2.994910 10.241186 0.002514 0.098108 -0.356979 9.568740 -26.219190 2.074134 0.437834 39.441593 5.748798 1.325006 -14.344563 -7.374599 -0.067789 0.201896 -0.304860
246.528763 84.090106 -220.972573 162.361197 1.778029 0.819016 -1.969323 21.074665 2.731722 -1.249866 11.962574 1.706218 -1.513504 14.958453 2.102554 -1.249872 11.962610 1.706241 0.162970 19.817160 -3.486488 1.350749 1.084215 -6.407624 7.046809 4.986688 -10.298346 -20.880126 -20.033106 90.036830 23.087916 -50.775279 32.095486 8.128079 -12.796385 2.040563 -11.230471 -0.070319 -5.357630 12.722562 -36.351969 -86.376551 -10.762879 -38.408354 -12.511151 -18.570083 -14.133056 3.518090 -21.287118 -27.338756 -7.765801 -2.653254 28.102971 -6.590164 -2.020897 -3.204876 10.494354 0.008478 0.151984 -0.349970 9.475619 -26.450082 2.146418 0.271504 39.837497 5.691804 1.196556 -14.498884 -7.202318 -0.090622 0.238709 -0.279764
246.474530 83.991440 -220.969618 162.747945 1.669127 0.671597 -1.979979 21.117526 2.643571 -1.251713 11.987283 1.674281 -1.516819 14.989248 2.062305 -1.251721 11.987312 1.674306 0.274710 19.770017 -3.495850 1.559516 1.003327 -6.459962 6.904321 5.217809 -10.373008 -21.114406 -19.440703 90.168801 23.049417 -50.831538 32.885160 8.161188 -12.815183 2.072955 -11.192764 -0.040421 -5.347861 12.884689 -36.476566 -86.443304 -10.802658 -38.388676 -12.494351 -18.506506 -14.178117 3.438424 -21.381778 -27.292150 -7.730588 -2.741109 28.419005 -6.730122 -2.245086 -3.410413 10.731001 0.031937 0.200704 -0.328181 9.439876 -26.639638 2.194600 0.023280 40.222793 5.586075 1.107750 -14.684800 -7.015849 -0.131544 0.310678 -0.267087
246.424058 83.899834 -220.972114 163.135977 1.558813 0.522442 -1.969787 21.140962 2.578876 -1.244085 12.015557 1.651618 -1.507901 15.024488 2.034027 -1.244096 12.015581 1.651645 0.363307 19.725457 -3.503313 1.725486 0.925994 -6.501876 6.784821 5.446165 -10.434315 -21.366518 -18.879470 90.285390 22.986849 -50.905526 33.598891 8.266775 -12.855720 2.070074 -11.137999 -0.012887 -5.332059 13.069211 -36.530069 -86.569173 -10.909208 -38.329756 -12.553065 -18.380638 -14.190244 3.351374 -21.458071 -27.236800 -7.692818 -2.849310 28.724553 -6.882436 -2.479273 -3.557319 10.957902 0.059735 0.201610 -0.298166 9.474541 -26.810265 2.224431 -0.297343 40.583425 5.449179 1.002796 -14.836150 -6.813888 -0.169024 0.351735 -0.258196
246.375308 83.815246 -220.981040 163.511165 1.436773 0.378468 -1.925973 21.154514 2.529731 -1.226901 12.046084 1.637868 -1.486663 15.062534 2.017272 -1.226914 12.046106 1.637894 0.430712 19.682262 -3.506743 1.851607 0.849887 -6.530060 6.682488 5.679341 -10.476288 -21.619273 -18.372739 90.371520 22.927778 -50.989782 34.199031 8.409971 -12.906983 2.041187 -11.075221 0.025300 -5.314653 13.270359 -36.530756 -86.737303 -11.076157 -38.233987 -12.684793 -18.190150 -14.172949 3.252530 -21.498233 -27.167384 -7.663806 -2.984807 29.015093 -7.056317 -2.717032 -3.651421 11.181500 0.089252 0.172077 -0.262563 9.597414 -26.951359 2.228083 -0.630476 40.915862 5.326865 0.844850 -14.985743 -6.610016 -0.202689 0.394615 -0.247028
246.327438 83.737365 -220.996094 163.876917 1.297336 0.240414 -1.847583 21.162228 2.502195 -1.202417 12.077422 1.633174 -1.455938 15.101588 2.012153 -1.202434 12.077441 1.633200 0.478501 19.640861 -3.508537 1.941422 0.775943 -6.549305 6.589400 5.915951 -10.503152 -21.860711 -17.926393 90.419187 22.887793 -51.079282 34.668514 8.558990 -12.958398 1.992817 -11.015372 0.081484 -5.302932 13.498893 -36.493252 -86.943665 -11.282478 -38.093994 -12.889379 -17.954508 -14.138112 3.139130 -21.505988 -27.082668 -7.651175 -3.146345 29.298848 -7.244677 -2.954107 -3.699048 11.397671 0.121622 0.116215 -0.221127 9.765236 -27.057482 2.223168 -0.897460 41.220174 5.255074 0.596812 -15.133642 -6.420539 -0.221706 0.436358 -0.223269
246.280079 83.665685 -221.017858 164.242508 1.129293 0.110749 -1.745748 21.176162 2.498653 -1.173799 12.107862 1.635074 -1.419790 15.139524 2.015469 -1.173816 12.107881 1.635097 0.509878 19.603082 -3.509687 2.000955 0.707750 -6.562299 6.507172 6.149422 -10.518579 -22.092269 -17.535774 90.431642 22.853813 -51.170245 35.021298 8.693251 -13.004156 1.930909 -10.959928 0.154295 -5.300331 13.757575 -36.418130 -87.178239 -11.510710 -37.906771 -13.166129 -17.695356 -14.093874 3.018403 -21.489145 -26.975184 -7.667698 -3.323969 29.590004 -7.433218 -3.194611 -3.721090 11.598922 0.161212 0.043062 -0.171612 9.918250 -27.117162 2.230016 -1.066501 41.500088 5.231447 0.269806 -15.278906 -6.249696 -0.222985 0.474131 -0.186555
246.232389 83.599682 -221.045195 164.619862 0.932967 -0.005435 -1.637859 21.200103 2.514118 -1.142985 12.135873 1.640196 -1.380777 15.174422 2.022919 -1.143002 12.135894 1.640215 0.528216 19.570190 -3.507595 2.035487 0.647702 -6.565252 6.444249 6.366571 -10.516158 -22.322122 -17.193382 90.411595 22.794912 -51.267555 35.282926 8.795092 -13.043147 1.871988 -10.904405 0.242078 -5.302902 14.029562 -36.303770 -87.427625 -11.758358 -37.673657 -13.499156 -17.431584 -14.043363 2.897851 -21.460247 -26.844989 -7.720069 -3.500487 29.893618 -7.611191 -3.447890 -3.736521 11.786517 0.207783 -0.036452 -0.116226 10.018108 -27.134709 2.249665 -1.162336 41.764228 5.231435 -0.091424 -15.412591 -6.093299 -0.212962 0.500366 -0.144237
246.183449 83.538924 -221.074946 165.011830 0.721966 -0.103646 -1.532868 21.226550 2.542972 -1.109645 12.160783 1.647897 -1.338508 15.205441 2.033709 -1.109662 12.160806 1.647914 0.533094 19.542947 -3.501617 2.043998 0.597153 -6.556813 6.400049 6.553408 -10.492349 -22.554096 -16.897800 90.361582 22.677420 -51.382253 35.472202 8.854600 -13.080637 1.837785 -10.846222 0.345342 -5.304927 14.285671 -36.155210 -87.680230 -12.022096 -37.400017 -13.867475 -17.181744 -13.986261 2.777757 -21.426198 -26.703555 -7.806014 -3.656323 30.204661 -7.771702 -3.722518 -3.751365 11.970977 0.256515 -0.115784 -0.063060 10.046812 -27.128739 2.275443 -1.232689 42.022058 5.221700 -0.432749 -15.523664 -5.945051 -0.198131 0.507422 -0.105052
246.131005 83.483131 -221.102762 165.380855 0.520735 -0.171973 -1.403945 21.235741 2.571593 -1.072545 12.182931 1.658242 -1.291427 15.232998 2.047962 -1.072562 12.182959 1.658256 0.521799 19.522426 -3.493743 2.022071 0.558029 -6.539724 6.367778 6.692308 -10.451390 -22.782816 -16.648667 90.287391 22.476743 -51.522799 35.596177 8.874425 -13.125663 1.837860 -10.784460 0.462636 -5.301665 14.499501 -35.975179 -87.925549 -12.301907 -37.092414 -14.253905 -16.955439 -13.923429 2.660960 -21.352131 -26.575255 -7.928697 -3.778106 30.513835 -7.908292 -4.034988 -3.769687 12.158042 0.315969 -0.183617 -0.014166 10.034889 -27.120989 2.291126 -1.324602 42.274997 5.167927 -0.697620 -15.636395 -5.796961 -0.186653 0.525347 -0.079750
246.080961 83.432172 -221.133567 165.817319 0.290890 -0.229639 -1.337564 21.268265 2.618611 -1.030648 12.202878 1.671056 -1.238236 15.257786 2.065493 -1.030665 12.202911 1.671069 0.491891 19.509204 -3.484478 1.965374 0.531293 -6.514129 6.342267 6.774881 -10.395772 -22.997948 -16.449436 90.195351 22.184964 -51.692400 35.650346 8.865410 -13.185099 1.870220 -10.721721 0.586480 -5.289693 14.654103 -35.755984 -88.150233 -12.603100 -36.757913 -14.646014 -16.753755 -13.855827 2.555059 -21.334205 -26.412794 -8.081020 -3.866629 30.812639 -8.022865 -4.327369 -3.782765 12.375130 0.329986 -0.257218 0.002629 9.886610 -27.070540 2.317924 -1.468688 42.512713 5.058973 -0.891395 -15.662956 -5.646690 -0.160311 0.471455 -0.062412
246.028843 83.386260 -221.161504 166.229639 0.074640 -0.253839 -1.251628 21.282358 2.657078 -0.983885 12.220447 1.686992 -1.178823 15.279583 2.087125 -0.983900 12.220485 1.687003 0.443475 19.501807 -3.473031 1.873935 0.514210 -6.478668 6.326911 6.816605 -10.328277 -23.196207 -16.314290 90.093499 21.812751 -51.889448 35.619809 8.844090 -13.257672 1.925695 -10.662620 0.707080 -5.267163 14.742242 -35.490771 -88.340433 -12.922828 -36.408321 -15.036254 -16.568383 -13.779922 2.462498 -21.283895 -26.263487 -8.260163 -3.923212 31.097967 -8.128983 -4.653388 -3.802554 12.611050 0.348162 -0.313077 0.009493 9.738608 -27.011021 2.304914 -1.672711 42.724233 4.910280 -0.988375 -15.692592 -5.497259 -0.143898 0.443523 -0.060088
245.978127 83.345754 -221.187970 166.639718 -0.135947 -0.256844 -1.166202 21.292007 2.697456 -0.931493 12.234590 1.707250 -1.112193 15.297080 2.114395 -0.931506 12.234635 1.707260 0.379342 19.496489 -3.459393 1.753033 0.500034 -6.434310 6.325039 6.837305 -10.252206 -23.375170 -16.259889 89.979218 21.389300 -52.106765 35.483586 8.824100 -13.341027 1.987212 -10.608630 0.816383 -5.235426 14.771051 -35.178169 -88.501495 -13.259069 -36.045846 -15.412764 -16.389316 -13.689439 2.381553 -21.232946 -26.118871 -8.444270 -3.936405 31.373182 -8.235488 -5.005522 -3.820753 12.872276 0.358066 -0.362824 0.004620 9.592993 -26.935719 2.260354 -1.913828 42.904596 4.747118 -1.041691 -15.701799 -5.348125 -0.132369 0.416063 -0.065807
245.930755 83.311162 -221.214382 167.034703 -0.343459 -0.244426 -1.071724 21.302058 2.743924 -0.873634 12.245039 1.732925 -1.038514 15.309935 2.148671 -0.873645 12.245088 1.732934 0.303495 19.489620 -3.446015 1.610902 0.482420 -6.386873 6.336734 6.842266 -10.169902 -23.527119 -16.287318 89.833313 20.948413 -52.329327 35.230583 8.815192 -13.434220 2.038051 -10.553182 0.906001 -5.202994 14.753434 -34.811547 -88.653253 -13.619305 -35.658939 -15.759431 -16.216560 -13.580498 2.317332 -21.168961 -25.975859 -8.622785 -3.895456 31.641158 -8.341566 -5.398384 -3.834452 13.154277 0.359941 -0.408979 -0.006323 9.476726 -26.842043 2.198635 -2.141646 43.052093 4.592750 -1.112929 -15.700315 -5.191611 -0.122589 0.392797 -0.075497
